<?xml version="1.0" ?><!-- Uploaded to: SVG Repo, www.svgrepo.com, Generator: SVG Repo Mixer Tools -->
<svg width="800px" height="800px" viewBox="0 0 100 100" data-name="Layer 1" id="Layer_1" xmlns="http://www.w3.org/2000/svg"><defs><style>.cls-1,.cls-2{fill:none;stroke:#000000;stroke-linejoin:round;stroke-width:2px;}.cls-1{stroke-linecap:round;}</style></defs><path class="cls-1" d="M56.25,53.19v2.19a.79.79,0,0,1-.79.79H51.92v3.54a.79.79,0,0,1-.79.79H48.94a.79.79,0,0,1-.79-.79V56.17H44.61a.79.79,0,0,1-.79-.79V53.19a.79.79,0,0,1,.79-.79h3.54V48.86a.79.79,0,0,1,.79-.79h2.19a.79.79,0,0,1,.79.79V52.4h3.54A.79.79,0,0,1,56.25,53.19Z"/><path class="cls-2" d="M38.17,29.32H61.83a4.54,4.54,0,0,1,4.54,4.54V59.74A16.37,16.37,0,0,1,50,76.11h0A16.37,16.37,0,0,1,33.63,59.74V33.86a4.54,4.54,0,0,1,4.54-4.54Z"/><path class="cls-1" d="M50,72.89a13.11,13.11,0,0,1-12.5-9"/><path class="cls-2" d="M58.84,55a8.81,8.81,0,1,1-17.61,0c0-4.86,8.77-22.52,8.77-22.52S58.84,50.18,58.84,55Z"/><path class="cls-1" d="M73.87,27.67V67.08a12.67,12.67,0,0,1-6.23,10.69l-8.73,5.4a16.88,16.88,0,0,1-17.82,0l-8.73-5.4a12.67,12.67,0,0,1-6.23-10.69V27.67A5.83,5.83,0,0,1,32,21.83h3.41a1.46,1.46,0,0,0,1.46-1.47V14.29H45v6.07a1.46,1.46,0,0,0,1.46,1.47h8.45a1.47,1.47,0,0,0,1.47-1.47V14.29h8.18v6.07A1.46,1.46,0,0,0,66,21.83h2A5.83,5.83,0,0,1,73.87,27.67Z"/><line class="cls-1" x1="34.32" x2="47.54" y1="14.29" y2="14.29"/><line class="cls-1" x1="53.88" x2="67.09" y1="14.29" y2="14.29"/></svg>