<?xml version="1.0" ?>
<!DOCTYPE svg  PUBLIC '-//W3C//DTD SVG 1.1//EN'  'http://www.w3.org/Graphics/SVG/1.1/DTD/svg11.dtd'>
<!-- Uploaded to: SVG Repo, www.svgrepo.com, Generator: SVG Repo Mixer Tools -->
<svg fill="#000000" width="800px" height="800px" viewBox="0 0 100 100" version="1.1" xml:space="preserve" xmlns="http://www.w3.org/2000/svg" xmlns:xlink="http://www.w3.org/1999/xlink">
<g id="_x31_"/>
<g id="_x32_"/>
<g id="_x33_"/>
<g id="_x34_"/>
<g id="_x35_"/>
<g id="_x36_">
<path d="M55.6,79.7c-0.5,0-1-0.2-1.4-0.6L22.6,47.5c-0.8-0.8-0.8-2,0-2.8l21.3-21.3c0.8-0.8,2-0.8,2.8,0l5.4,5.4   c0.4,0.4,0.6,0.9,0.6,1.4s-0.2,1-0.6,1.4l-5.5,5.5c-0.4,0.4-0.6,0.9-0.6,1.5c0,0,0,0,0,0c0,0.5,0.2,1.1,0.6,1.5   c0.4,0.4,0.9,0.6,1.5,0.6c0,0,0,0,0,0c0.6,0,1.1-0.2,1.5-0.6l5.5-5.5c0.8-0.8,2-0.8,2.8,0l8.3,8.3c0.8,0.8,0.8,2,0,2.8l-5.5,5.5   c-0.4,0.4-0.6,0.9-0.6,1.5c0,0.6,0.2,1.1,0.6,1.5c0.8,0.8,2.1,0.8,3,0l5.5-5.5c0.4-0.4,0.9-0.6,1.4-0.6l0,0c0.5,0,1,0.2,1.4,0.6   l6.4,6.4c0.5,0.5,0.7,1.1,0.6,1.8l-2.7,15c-0.5,2.6-2.6,4.8-5.2,5.2l-15,2.7C55.8,79.7,55.7,79.7,55.6,79.7z M26.8,46.1l29.5,29.5   l14-2.5c1-0.2,1.8-1,2-2l2.5-14l-4.3-4.3l-4.1,4.1c-2.4,2.4-6.2,2.4-8.6,0c-1.2-1.2-1.8-2.7-1.8-4.3c0-1.6,0.6-3.1,1.8-4.3l4.1-4.1   l-5.4-5.4l-4.1,4.1c-1.1,1.2-2.7,1.8-4.3,1.8c0,0,0,0,0,0c-1.6,0-3.2-0.6-4.3-1.8c-1.2-1.2-1.8-2.7-1.8-4.3c0-1.6,0.6-3.2,1.8-4.3   l4.1-4.1l-2.5-2.5L26.8,46.1z M31,41.1L31,41.1c-0.5,0-1-0.2-1.4-0.6L23.1,34c-0.8-0.8-0.8-2,0-2.8l7.3-7.3c0.8-0.8,2-0.8,2.8,0   l6.4,6.4c0.8,0.8,0.8,2,0,2.8l-7.3,7.3C32,40.9,31.5,41.1,31,41.1z M27.4,32.6l3.6,3.6l4.4-4.4l-3.6-3.6L27.4,32.6z M81.3,88.3   c-1.6,0-3.2-0.6-4.4-1.8l-9.6-9.6c-0.5-0.5-0.7-1.3-0.5-2s0.8-1.2,1.6-1.4l1.8-0.3c1-0.2,1.8-1,2-2l0.4-2.2   c0.1-0.7,0.7-1.3,1.4-1.6c0.7-0.2,1.5,0,2,0.5l9.8,9.8c2.4,2.4,2.4,6.4,0,8.8C84.5,87.7,82.9,88.3,81.3,88.3z M72.6,76.5l7.2,7.2   c0.9,0.9,2.3,0.9,3.1,0c0.9-0.9,0.9-2.3,0-3.1l-7.2-7.2C75,74.7,73.9,75.8,72.6,76.5z M17,42.2L17,42.2c-0.5,0-1-0.2-1.4-0.6   l-5.4-5.4c-0.8-0.8-0.8-2,0-2.8L32.6,11c0.8-0.8,2-0.8,2.8,0l5.4,5.4c0.8,0.8,0.8,2,0,2.8L18.4,41.6C18,42,17.5,42.2,17,42.2z    M14.5,34.8l2.5,2.5l19.5-19.5L34,15.3L14.5,34.8z M48,44.7c-1.6,0-3.2-0.6-4.3-1.8c-1.2-1.2-1.8-2.7-1.8-4.3   c0-1.6,0.6-3.1,1.8-4.3l5.5-5.5c0.4-0.4,0.9-0.6,1.4-0.6l0,0c0.5,0,1,0.2,1.4,0.6l5.8,5.8c0.8,0.8,0.8,2,0,2.8l-5.5,5.5   C51.2,44,49.7,44.7,48,44.7C48,44.7,48,44.7,48,44.7z M50.7,33l-4.1,4.1c-0.4,0.4-0.6,0.9-0.6,1.5c0,0.6,0.2,1.1,0.6,1.5   c0.4,0.4,0.9,0.6,1.5,0.6c0,0,0,0,0,0c0.6,0,1.1-0.2,1.5-0.6l4.1-4.1L50.7,33z M62.1,58.7c-1.6,0-3.1-0.6-4.3-1.8   c-1.2-1.2-1.8-2.7-1.8-4.3c0-1.6,0.6-3.1,1.8-4.3l5.5-5.5c0.8-0.8,2-0.8,2.8,0l5.8,5.8c0.4,0.4,0.6,0.9,0.6,1.4s-0.2,1-0.6,1.4   l-5.5,5.5C65.2,58.1,63.6,58.7,62.1,58.7z M64.7,47l-4.1,4.1c-0.4,0.4-0.6,0.9-0.6,1.5c0,0.6,0.2,1.1,0.6,1.5c0.8,0.8,2.1,0.8,3,0   l4.1-4.1L64.7,47z"/>
</g>
<g id="_x37_"/>
<g id="_x38_"/>
<g id="_x39_"/>
<g id="_x31_0"/>
<g id="_x31_1"/>
<g id="_x31_2"/>
<g id="_x31_3"/>
<g id="_x31_4"/>
<g id="_x31_5"/>
<g id="_x31_6"/>
<g id="_x31_7"/>
<g id="_x31_8"/>
<g id="_x31_9"/>
<g id="_x32_0"/>
<g id="_x32_1"/>
<g id="_x32_2"/>
<g id="_x32_3"/>
<g id="_x32_4"/>
<g id="_x32_5"/>
</svg>